<svg xmlns="http://www.w3.org/2000/svg" width="25.021" height="32.049" viewBox="0 0 25.021 32.049"><defs><style>.a{fill:#70c5cb;stroke:#70c5cb;stroke-width:0.2px;}</style></defs><g transform="translate(-4.9 -1.42)"><path class="a" d="M17.26,6.982h.3a3.826,3.826,0,0,1,3.8,3.235,50.809,50.809,0,0,1,.278,5.127l5.177.263c.007-2.088,0-4.875,0-4.875a9.641,9.641,0,0,0-9.242-9.21h-.328a9.317,9.317,0,0,0-9.288,9.3v4.785l-.745.131-.151.03A2.519,2.519,0,0,0,5,18.24V29.826A2.519,2.519,0,0,0,7.049,32.3l1.031.194a50.326,50.326,0,0,0,9.33.877,50.309,50.309,0,0,0,9.324-.872l1.037-.195a2.519,2.519,0,0,0,2.049-2.473V18.24a2.519,2.519,0,0,0-2.049-2.473h0l-.148-.03a55.173,55.173,0,0,0-14.207-.808V10.824A3.849,3.849,0,0,1,17.26,6.982Zm.151,9.442a53.412,53.412,0,0,1,9.922.93l.147.029a.877.877,0,0,1,.713.86V29.826a.877.877,0,0,1-.713.86l-1.031.194a48.779,48.779,0,0,1-18.063,0l-1.031-.194a.877.877,0,0,1-.713-.86V18.24a.877.877,0,0,1,.713-.86l.151-.03a53.406,53.406,0,0,1,9.9-.926ZM9.6,15.343V10.821a7.675,7.675,0,0,1,7.655-7.665h.328a7.662,7.662,0,0,1,7.6,6.755.079.079,0,0,1-.02.066c-.013.015.04,5.761.02,5.76l-2.064-.394c-.032,0,.006-5.1,0-5.127a5.588,5.588,0,0,0-5.549-4.867h-.3a5.491,5.491,0,0,0-5.491,5.475v4.253C11.043,15.143,10.314,15.241,9.6,15.343Z" transform="translate(0 0)"/><path class="a" d="M33.891,64.867a6.509,6.509,0,0,0,4.742,0h0a1.274,1.274,0,0,0,.742-1.626l-.906-2.548a2.857,2.857,0,1,0-4.4,0l-.923,2.548A1.278,1.278,0,0,0,33.891,64.867Zm1.622-5.028a1.205,1.205,0,1,1,1.5,0,.821.821,0,0,0-.263.916l.959,2.7a4.864,4.864,0,0,1-2.89,0l.959-2.7A.821.821,0,0,0,35.513,59.839Z" transform="translate(-18.851 -36.604)"/></g></svg>